<?xml version="1.0" encoding="UTF-8"?>
<svg width="48px" height="48px" viewBox="0 0 48 48" version="1.1" xmlns="http://www.w3.org/2000/svg" xmlns:xlink="http://www.w3.org/1999/xlink">
    <!-- Generator: Sketch 58 (84663) - https://sketch.com -->
    <title>Combined Shape</title>
    <desc>Created with Sketch.</desc>
    <g id="Desktop" stroke="none" stroke-width="1" fill="none" fill-rule="evenodd">
        <g id="Login_Desktop_3" transform="translate(-387.000000, -59.000000)" fill="#FFFFFF">
            <g id="Resources/01.-Brand/01.-Itau_BRANCO" transform="translate(387.000000, 59.000000)">
                <g id="Logo_Itaú_Branco">
                    <path d="M8.86237288,0.134435932 L39.1463051,0.154033898 C43.9105085,0.154033898 47.8155932,4.07864407 47.7961407,8.84284746 L47.7961407,39.1267797 C47.7961407,43.8909831 43.8909831,47.7960678 39.1072542,47.7960678 L8.80379661,47.7765424 C4.03959322,47.7570169 0.134508475,43.8714576 0.134508475,39.0877288 L0.173559322,8.80379661 C0.173559322,4.03959322 4.07864407,0.114983051 8.86237288,0.134435932 Z M35.2412203,26.2790508 L31.863322,26.2790508 L31.8437966,34.5578305 C31.8437966,37.76 33.6791864,39.1853559 36.2174915,39.1853559 C37.9747797,39.2048814 39.3415593,38.4238644 40.1030508,37.0766102 L40.1421017,37.0766102 L40.1421017,38.8338983 L43.383322,38.8338983 L43.383322,26.2790508 L40.0249492,26.2790508 L40.0249492,33.5425085 C40.0249492,35.7684068 38.5214915,36.3932203 37.4280678,36.3932203 C36.3736949,36.3932203 35.2216949,36.0027119 35.2412203,34.0696949 L35.2412203,26.2790508 Z M24.1507797,25.9275932 C21.5148475,25.9275932 18.8008136,26.4938305 18.3907797,30.340339 L21.6515254,30.340339 C21.7491525,29.5983729 22.0615593,28.5830508 23.7407458,28.5830508 C24.5998644,28.5830508 25.9666441,28.6611525 25.9666441,30.0474576 C25.9666441,30.7503729 25.3027797,30.9651525 24.7560678,31.0432542 L21.7296271,31.492339 C19.5818305,31.7852203 17.9807458,33.0543729 17.9807458,35.5145763 C17.9807458,38.1114576 19.972339,39.1853559 21.8858305,39.1853559 C24.1898305,39.1853559 25.2832542,38.1309831 26.0252203,37.3694915 C26.103322,38.0528814 26.1618983,38.2286102 26.3571525,38.8338983 L29.2469153,38.8143729 C29.2469153,37.4280678 29.2273898,36.4127458 29.2273898,36.3932203 L29.2273898,29.5983729 C29.2273898,26.4938305 25.9666441,25.9275932 24.1507797,25.9275932 Z M14.8762034,21.8663051 L11.5178305,21.8663051 L11.5178305,26.2595254 L9.7800678,26.2595254 L9.7800678,28.6221017 L11.4983051,28.6221017 L11.4983051,36.2565424 C11.4983051,37.8771525 12.0254915,38.9901017 14.9347797,38.9901017 L15.3838644,38.9901017 C15.9110508,38.9901017 16.4577627,38.9510508 16.9654237,38.9315254 L16.9654237,36.4127458 C16.7311186,36.4322712 16.4772881,36.471322 16.2625085,36.471322 C14.8957288,36.471322 14.856678,36.1979661 14.856678,35.4364746 L14.8762034,28.6221017 L16.9849492,28.6221017 L16.9849492,26.2595254 L14.8762034,26.2595254 L14.8762034,21.8663051 Z M8.2180339,21.8467797 L4.58630508,21.8467797 L4.56677966,38.8143729 L8.19850847,38.8143729 L8.2180339,21.8467797 Z M25.9666441,32.7224407 L25.9666441,34.3430508 C25.9666441,35.8660339 24.4241356,36.8032542 22.9402034,36.8032542 C22.2958644,36.8032542 21.3586441,36.4322712 21.3586441,35.2997966 C21.3586441,33.9330169 22.3934915,33.6010847 23.6626441,33.3863051 C25.0489492,33.1910508 25.6151864,32.9762712 25.9666441,32.7224407 Z M41.0988475,21.8663051 L37.6428475,21.8663051 L36.2174915,24.580339 L38.6386441,24.580339 L41.0988475,21.8663051 Z" id="Combined-Shape"></path>
                </g>
            </g>
        </g>
    </g>
</svg>
