<?xml version="1.0" standalone="no"?>
<!DOCTYPE svg PUBLIC "-//W3C//DTD SVG 20010904//EN"
 "http://www.w3.org/TR/2001/REC-SVG-20010904/DTD/svg10.dtd">
<svg version="1.0" xmlns="http://www.w3.org/2000/svg"
 width="114.000000pt" height="114.000000pt" viewBox="0 0 114.000000 114.000000"
 preserveAspectRatio="xMidYMid meet">
<metadata>
Created by potrace 1.11, written by Peter Selinger 2001-2013
</metadata>
<g transform="translate(0.000000,114.000000) scale(0.100000,-0.100000)"
fill="#000000" stroke="none">
<path d="M115 1123 c-46 -24 -76 -54 -96 -98 -17 -37 -19 -73 -19 -455 0 -382
2 -418 19 -455 22 -48 54 -79 103 -100 56 -23 840 -23 896 0 47 20 79 50 103
97 18 35 19 64 19 453 0 353 -2 421 -15 453 -21 49 -52 81 -100 103 -37 17
-73 19 -460 18 -363 0 -424 -2 -450 -16z"/>
</g>
</svg>
